<?xml version="1.0" encoding="UTF-8"?>
<svg width="140px" height="31px" viewBox="0 0 140 31" version="1.1" xmlns="http://www.w3.org/2000/svg" xmlns:xlink="http://www.w3.org/1999/xlink">
    <!-- Generator: Sketch 55.2 (78181) - https://sketchapp.com -->
    <title>logo</title>
    <desc>Created with Sketch.</desc>
    <g id="Дизайн-2.0" stroke="none" stroke-width="1" fill="none" fill-rule="evenodd">
        <g id="Главная-страница-2.3" transform="translate(-24.000000, -32.000000)">
            <g id="header">
                <g id="logo" transform="translate(24.000000, 32.000000)">
                    <path d="M110.759494,2.97705989 L110.759494,22.7037808 C111.948277,26.1385733 124.561889,30.7754695 125.145681,30.9750862 C125.225063,31.0030026 125.297858,31.0126582 125.383526,31.0126582 C125.455411,31.0126582 125.534855,31.0030026 125.607669,30.9750862 C126.197605,30.7754695 139.051104,26.0481378 140,22.7037808 L140,2.97705989 L137.267232,0.00872641199 L113.474598,0 L110.759494,2.97705989 Z" id="path2" fill="#8E004D"></path>
                    <path d="M6.33487127,6.48621238 C6.39734179,6.65429336 6.47020052,6.85394367 6.55342731,7.08506258 C6.63669443,7.31618149 6.71992121,7.56833319 6.80320851,7.84147738 C7.40681448,7.40023206 8.09883126,7.01674632 8.86895132,6.69108059 C9.64425539,6.36539473 10.4975821,6.20253165 11.4394204,6.20253165 C12.2719706,6.20253165 13.0420705,6.38114917 13.7393318,6.73836407 C14.4365528,7.09557898 15.0401588,7.61035847 15.539701,8.282763 C16.0392029,8.95514737 16.4346814,9.76936205 16.7156676,10.7254272 C16.9966538,11.681452 17.1371267,12.7478183 17.1371267,13.9245061 C17.1371267,14.9121003 16.9706328,15.899634 16.6375845,16.887208 C16.3045967,17.874782 15.8310754,18.767789 15.2275098,19.5662694 C14.6239038,20.3647296 13.8954173,21.0108431 13.0524587,21.5046301 C12.2043161,21.9984171 11.2833147,22.2452905 10.2790664,22.2452905 C9.67546039,22.2452905 9.11871235,22.1717563 8.61917011,22.0246678 C8.11966822,21.8775995 7.63573857,21.6884857 7.17782989,21.4573668 L7.17782989,25.1151983 C7.17782989,25.9343085 7.20905506,26.722615 7.27148523,27.4790902 C7.87509121,27.5210752 8.51514672,27.5893713 9.19157108,27.6839181 C9.86799545,27.7784649 10.4559888,27.8993229 10.9554907,28.0463711 C10.9554907,28.403586 10.9398781,28.7870717 10.9086731,29.1968082 C10.877448,29.6065244 10.8306304,29.916476 10.7682002,30.1265823 C9.89401643,30.1055898 8.96779069,30.0898353 7.98958351,30.0793189 C7.01137632,30.0688026 6.02268007,30.0635645 5.02363594,30.0635645 C3.9205079,30.0635645 3.01495774,30.0742824 2.30748974,30.0950734 C1.60002175,30.1159047 0.923355325,30.1265823 0.27813596,30.1265823 C0.215705788,29.9322305 0.16374452,29.6325938 0.122070614,29.2125626 C0.0808808204,28.7977694 0.0595799279,28.3983479 0.0595799279,28.0148622 C0.496691993,27.9728772 0.944393991,27.8991617 1.40210095,27.7942597 C1.85978774,27.6894181 2.24501923,27.5841333 2.55721043,27.4790902 C2.59884399,27.1218753 2.63006917,26.8170006 2.65090612,26.5650504 C2.67133965,26.3182979 2.68213129,26.0344761 2.68213129,25.7192865 L2.68213129,9.79563288 C2.26585618,9.66953689 1.85476509,9.56447368 1.44891854,9.48046341 C1.04307199,9.3963927 0.6319809,9.33335477 0.215705788,9.29132949 C0.111642052,8.97613987 0.0439875132,8.650454 0.0127623412,8.31427189 C-0.0184426595,7.97808977 0.00757831716,7.6629203 0.0908050999,7.36872317 C1.85994911,6.73836407 3.7748106,6.36015668 5.83536938,6.23406068 L6.33487127,6.48621238 Z M9.51937488,9.3858763 C9.18634672,9.3858763 8.81688919,9.45417242 8.41104264,9.59076467 C8.00519609,9.72733676 7.594105,9.90069609 7.17782989,10.1108225 L7.17782989,18.0218704 C7.594105,18.3790854 8.05201368,18.6627258 8.55155592,18.8728321 C9.05105781,19.0829585 9.54017149,19.1880217 10.0188768,19.1880217 C10.3102915,19.1880217 10.5808492,19.1250039 10.8306304,18.9989482 C11.0803914,18.8728321 11.2469055,18.7573129 11.3301323,18.6522497 C11.6839772,18.1899716 11.9701878,17.6226303 12.1887035,16.9502459 C12.4072595,16.2778817 12.5165073,15.5424594 12.5165073,14.7439588 C12.5165073,14.0716147 12.4540771,13.4149647 12.3292168,12.7740892 C12.2043161,12.1332137 12.0170054,11.5606343 11.7672443,11.0563712 C11.5174631,10.5520477 11.2052719,10.1475694 10.8306304,9.84291636 C10.4559888,9.53820284 10.0188768,9.3858763 9.51937488,9.3858763 L9.51937488,9.3858763 Z M18.9791295,14.7124499 C18.9791295,13.6828708 19.161236,12.6637879 19.5255095,11.6552214 C19.8897225,10.6465945 20.3996731,9.73785316 21.0553009,8.92887654 C21.7109286,8.11989992 22.4966411,7.46326998 23.4124181,6.95900688 C24.3282354,6.45470349 25.3272796,6.20253165 26.4095908,6.20253165 C27.5959658,6.20253165 28.5793974,6.40742001 29.3598855,6.81715644 C30.1404139,7.22687273 30.7544081,7.74693057 31.2018882,8.37728966 C31.6493885,9.0076689 31.9668242,9.69056968 32.1541148,10.425992 C32.3414456,11.1614344 32.435101,11.8548113 32.435101,12.506183 C32.435101,13.2206128 32.3414456,13.7984101 32.1541148,14.2396957 L31.7794732,14.6179031 C30.6815494,14.5969106 29.5055828,14.5811159 28.2515936,14.5706398 C26.9975439,14.5601234 25.8112092,14.5548854 24.6872644,14.5548854 L23.5373188,14.5548854 C23.5997489,15.0801812 23.7142009,15.6054771 23.8807351,16.1307932 C24.0472492,16.6560891 24.2866019,17.1341216 24.593609,17.5648505 C24.9058204,17.9955996 25.2908704,18.3422981 25.7487387,18.6049662 C26.2014432,18.867594 26.7634156,18.9989482 27.4242274,18.9989482 C28.0486501,18.9989482 28.6782367,18.9148775 29.3078839,18.7467764 C29.9426545,18.5786954 30.7127745,18.3055512 31.6285919,17.9273035 C31.8731286,18.1584627 32.0604594,18.4316069 32.1853198,18.7467764 C32.3102406,19.061966 32.3934674,19.4401734 32.435101,19.881459 C32.0604594,20.1966486 31.6181633,20.5013017 31.108253,20.7954787 C30.5983226,21.0896355 30.0623308,21.3523036 29.5003987,21.5834225 C28.9384263,21.8145414 28.3608413,21.9984171 27.7676639,22.1350094 C27.1744663,22.2715815 26.5968813,22.3398373 26.0349493,22.3398373 C24.8069407,22.3398373 23.7454664,22.1402474 22.8504457,21.7410274 C21.9554653,21.3417872 21.2217948,20.8007369 20.649414,20.117816 C20.0770533,19.4349353 19.6555538,18.6311968 19.3849962,17.706701 C19.1144184,16.7821448 18.9791295,15.7840947 18.9791295,14.7124499 L18.9791295,14.7124499 Z M24.6560392,9.63278995 C24.4479118,9.94268108 24.2449481,10.3156706 24.0472492,10.7411816 C23.8547142,11.1666725 23.7038127,11.6604595 23.5997489,12.2225023 L24.2813977,12.2225023 C25.06709,12.2225023 25.7799437,12.2172643 26.4199589,12.2067479 C27.0600144,12.1962718 27.5699448,12.1700009 27.9393822,12.1279756 C27.9393822,11.7339936 27.9081772,11.3557863 27.8456865,10.988055 C27.7832563,10.625602 27.6740086,10.3104124 27.5231071,10.0372682 C27.3670014,9.76936205 27.1536697,9.55399758 26.8830919,9.40163075 C26.6177183,9.24406616 26.2638734,9.16527379 25.8320058,9.16527379 C25.6655119,9.16527379 25.4521399,9.20725878 25.1971747,9.29132949 C24.9370254,9.3754002 24.7548786,9.48570146 24.6560392,9.63278995 Z M41.3640882,9.2598206 L41.489009,16.887208 C41.489009,17.706701 41.520214,18.4946247 41.5826442,19.2510999 C42.1237797,19.2930849 42.6753437,19.3666392 43.2373161,19.4716823 C43.7992885,19.5767455 44.2571972,19.6923251 44.6110421,19.8183808 C44.6110421,20.1755957 44.5954295,20.5643396 44.5642043,20.9845723 C44.532959,21.404805 44.4757532,21.7199946 44.3924861,21.930121 C44.1427049,21.930121 43.8097171,21.924883 43.3934419,21.9143666 C42.9771668,21.9038502 42.5296867,21.8933741 42.0509411,21.8828375 C41.5722358,21.8723211 41.0779179,21.8670831 40.5679875,21.8670831 C40.0580368,21.8670831 39.5845559,21.8670831 39.1474439,21.8670831 C38.1900535,21.8670831 37.3418907,21.8775995 36.6029958,21.8986121 C35.8641009,21.9196046 35.1928807,21.930121 34.5893151,21.930121 C34.4852312,21.5729061 34.4227607,21.2157315 34.4019641,20.8585166 C34.3811674,20.5013017 34.3707591,20.1546032 34.3707591,19.8183808 C35.2032891,19.7133176 36.0254108,19.5242441 36.8371644,19.2510999 C36.8995946,19.0199407 36.9412281,18.7467764 36.9620247,18.4316069 C36.9828617,18.1164173 36.9932499,17.8117642 36.9932499,17.5175671 L36.9932499,11.0248422 C36.9932499,10.7516577 36.9828617,10.4679971 36.9620247,10.1738403 C36.9412281,9.8796633 36.9100231,9.58552662 36.8683896,9.29132949 C36.4521144,9.144241 36.0358393,9.02342335 35.6195642,8.92887654 C35.2032891,8.83432972 34.787014,8.7660336 34.3707591,8.72398817 C34.3707591,8.36677327 34.3863515,8.01483671 34.4175766,7.66815835 C34.4488018,7.32145984 34.5060278,6.96948298 34.5893151,6.61230837 C35.1928807,6.61230837 35.8589169,6.62278447 36.5873832,6.64381726 C37.3158697,6.66480976 38.1588283,6.67532615 39.1162389,6.67532615 L42.1758418,6.67532615 C42.6337505,6.67532615 43.1436607,6.67532615 43.7056331,6.67532615 C44.2676056,6.67532615 44.8295578,6.67004781 45.3915302,6.65957171 C45.9535026,6.64905531 46.4998624,6.63853892 47.0305895,6.62806282 C47.5613367,6.61754642 48.034858,6.61230837 48.4511331,6.61230837 L48.7945495,6.99051577 C48.8361831,7.89401906 48.8153625,8.80805888 48.7321193,9.73257481 C48.648832,10.6571109 48.5239717,11.48708 48.3574778,12.2225023 C47.9412027,12.3275655 47.5040906,12.3801273 47.0461819,12.3801273 C46.5883136,12.3801273 46.1824267,12.3275655 45.8286221,12.2225023 C45.7869885,11.7392317 45.7349466,11.2454447 45.6725164,10.7411816 C45.6100862,10.2368782 45.5267989,9.74309121 45.4227352,9.2598206 L41.3640882,9.2598206 Z M50.1994805,21.930121 C50.0954168,21.5729061 50.0329463,21.2157315 50.0121497,20.8585166 C49.9913531,20.5013017 49.9809245,20.1546032 49.9809245,19.8183808 C50.7926378,19.7343705 51.6043712,19.5452366 52.4161248,19.2510999 C52.478555,19.0199407 52.5201886,18.7467764 52.5409852,18.4316069 C52.5617818,18.1164173 52.5722103,17.8117642 52.5722103,17.5175671 L52.5722103,11.0248422 C52.5722103,10.7516577 52.5617818,10.4679971 52.5409852,10.1738403 C52.5201886,9.8796633 52.4889634,9.58552662 52.4473298,9.29132949 C51.6355964,9.0181853 50.8134747,8.82905138 49.9809245,8.72398817 C49.9809245,8.36677327 49.9965371,8.01483671 50.0277421,7.66815835 C50.0589673,7.32145984 50.1162134,6.96948298 50.1994805,6.61230837 C50.7822495,6.61230837 51.4326933,6.62278447 52.1507512,6.64381726 C52.868789,6.66480976 53.6961552,6.67532615 54.6327691,6.67532615 C55.402869,6.67532615 56.1521521,6.67004781 56.8806184,6.65957171 C57.6090847,6.64905531 58.2439159,6.63330087 58.7850513,6.61230837 C58.8474815,6.94849049 58.8891151,7.2899308 58.9099117,7.63662931 C58.9307486,7.98332782 58.9411772,8.34578077 58.9411772,8.72398817 C58.4000014,9.0181853 57.7755988,9.20725878 57.0679493,9.29132949 C57.0263157,9.64854439 57.0002947,10.0319898 56.9898662,10.4417666 C56.9794981,10.8514829 56.9742738,11.2559611 56.9742738,11.6552214 L56.9742738,13.7353923 L56.6932876,16.5720183 L56.8181883,16.5720183 L62.6251424,6.70685519 C62.9998243,6.68580225 63.4212834,6.67532615 63.8895601,6.67532615 C64.3578973,6.67532615 64.7897649,6.67532615 65.1852434,6.67532615 C66.0593868,6.67532615 66.9075295,6.67004781 67.7296915,6.65957171 C68.5518131,6.64905531 69.264687,6.63330087 69.868293,6.61230837 C69.9307232,6.94849049 69.9723567,7.2899308 69.9931534,7.63662931 C70.0139701,7.98332782 70.0243785,8.34578077 70.0243785,8.72398817 C69.3583424,9.0181853 68.5882223,9.20725878 67.7140991,9.29132949 C67.6724453,9.64854439 67.6464243,10.0319898 67.636016,10.4417666 C67.6256277,10.8514829 67.6204034,11.2559611 67.6204034,11.6552214 L67.6204034,16.887208 C67.6204034,17.706701 67.6516084,18.4946247 67.7140991,19.2510999 C68.130354,19.2930849 68.5414047,19.3666392 68.9472916,19.4716823 C69.3531382,19.5767455 69.6913705,19.6923251 69.9619484,19.8183808 C69.9619484,20.1755957 69.9463358,20.5643396 69.9151308,20.9845723 C69.8839056,21.404805 69.8370477,21.7199946 69.7746175,21.930121 C69.5664699,21.930121 69.2854836,21.924883 68.931679,21.9143666 C68.5778543,21.9038502 68.1979884,21.8933741 67.7921216,21.8828375 C67.3862751,21.8723211 66.9647756,21.8670831 66.5277039,21.8670831 C66.0905918,21.8670831 65.6951738,21.8670831 65.3413289,21.8670831 C64.4879821,21.8670831 63.7282906,21.8775995 63.0622544,21.8986121 C62.3962183,21.9196046 61.7926123,21.930121 61.2514567,21.930121 C61.1681896,21.5729061 61.1161879,21.2157315 61.095351,20.8585166 C61.0745544,20.5013017 61.0641258,20.1546032 61.0641258,19.8183808 C61.7093654,19.7343705 62.3754217,19.555753 63.0622544,19.2826088 C63.1246846,19.0514496 63.1663182,18.7730673 63.1871148,18.4473613 C63.2079517,18.1216553 63.2183399,17.8117642 63.2183399,17.5175671 L63.2183399,13.3886938 L63.4993261,10.5520477 L63.3744658,10.5520477 L56.7557581,21.8355742 C56.4019131,21.8565667 56.0741093,21.8670831 55.7722862,21.8670831 C55.4704832,21.8670831 55.1426794,21.8670831 54.7888345,21.8670831 C53.8314441,21.8670831 52.9780569,21.8775995 52.2287738,21.8986121 C51.4795109,21.9196046 50.8030462,21.930121 50.1994805,21.930121 L50.1994805,21.930121 Z M79.7807319,6.20253165 C81.0347211,6.20253165 82.1222366,6.40218196 83.0484623,6.80138185 C83.9798519,7.20064218 84.7447678,7.74693057 85.3483334,8.44032759 C85.9571436,9.1337649 86.4046237,9.95845567 86.6960183,10.9145006 C86.987433,11.8705657 87.13309,12.9054232 87.13309,14.0190529 C87.13309,15.0066269 86.9614121,15.9942211 86.6179957,16.9817548 C86.2745591,17.9693288 85.7646085,18.8570776 85.0986127,19.6450617 C84.4325564,20.4329854 83.6208229,21.0791191 82.658188,21.5834225 C81.7007774,22.0877259 80.6028536,22.3398373 79.3748652,22.3398373 C78.1416726,22.3398373 77.0645454,22.1454855 76.13836,21.7567818 C75.2069301,21.368058 74.4420545,20.8270077 73.8384486,20.1335704 C73.2348829,19.4401734 72.7769743,18.6154423 72.4751511,17.6594175 C72.1733481,16.7033725 72.0224668,15.6579987 72.0224668,14.5233563 C72.0224668,13.5567748 72.1942052,12.5744792 72.5376216,11.5763888 C72.881038,10.5783387 73.3909483,9.68529133 74.0570046,8.89736765 C74.7230407,8.10938352 75.5347338,7.46326998 76.497389,6.95900688 C77.4547794,6.45470349 78.5527032,6.20253165 79.7807319,6.20253165 L79.7807319,6.20253165 Z M79.8431621,19.2826088 C80.0876988,19.2826088 80.3791135,19.2458216 80.7121013,19.1722672 C81.0399657,19.0987129 81.2688897,18.9778953 81.3937501,18.8098143 C81.7267984,18.3895615 81.9973762,17.8275186 82.2003197,17.1236052 C82.4084471,16.4196918 82.5125109,15.6475226 82.5125109,14.807037 C82.5125109,14.2186629 82.4552647,13.5988202 82.3407926,12.9474485 C82.2263003,12.2960566 82.0493778,11.6972064 81.7996571,11.1508979 C81.5498759,10.6046095 81.2168478,10.1528075 80.805797,9.79563288 C80.3895219,9.43841798 79.8952242,9.2598206 79.3123947,9.2598206 C79.067858,9.2598206 78.7764634,9.29656754 78.4434554,9.37012186 C78.1156516,9.44365603 77.8866671,9.56447368 77.7618067,9.73257481 C77.4287987,10.1528075 77.1582007,10.7149108 76.9552976,11.4188242 C76.74715,12.1227376 76.6430863,12.8949068 76.6430863,13.7353923 C76.6430863,14.3237262 76.7003324,14.9436091 76.8147642,15.5949607 C76.9292565,16.2463325 77.111363,16.8451827 77.3559602,17.3915114 C77.6057212,17.9378199 77.933525,18.3895615 78.3341875,18.7467764 C78.7400542,19.1039913 79.2395561,19.2826088 79.8431621,19.2826088 L79.8431621,19.2826088 Z M106.552141,16.887208 C106.552141,17.706701 106.583367,18.4946247 106.645837,19.2510999 C107.062112,19.2930849 107.478367,19.3666392 107.894642,19.4716823 C108.310917,19.5767455 108.654334,19.6923251 108.924912,19.8183808 C108.924912,20.1755957 108.909299,20.5643396 108.878074,20.9845723 C108.846869,21.404805 108.799991,21.7199946 108.737561,21.930121 C108.529433,21.930121 108.243263,21.924883 107.87903,21.9143666 C107.514776,21.9038502 107.124542,21.8933741 106.708267,21.8828375 C106.291992,21.8723211 105.865309,21.8670831 105.428237,21.8670831 C104.991125,21.8670831 104.585278,21.8670831 104.210637,21.8670831 C103.274023,21.8670831 102.451861,21.8775995 101.744231,21.8986121 C101.036542,21.9196046 100.391342,21.930121 99.8085734,21.930121 C99.7045096,21.5729061 99.6420391,21.2157315 99.6212425,20.8585166 C99.6004459,20.5013017 99.5900173,20.1546032 99.5900173,19.8183808 C99.9646589,19.7763958 100.349709,19.7080795 100.745187,19.6135529 C101.140625,19.5189657 101.525675,19.3981481 101.900317,19.2510999 C101.962787,19.0199407 102.004381,18.7467764 102.025218,18.4316069 C102.046014,18.1164173 102.056423,17.8117642 102.056423,17.5175671 L102.056423,15.531943 C101.265526,15.4898975 100.484998,15.4531506 99.7148777,15.4216014 C98.9448181,15.3900925 98.1954947,15.3743179 97.4670284,15.3743179 L96.0621377,15.3743179 L96.0621377,16.887208 C96.0621377,17.706701 96.0933427,18.4946247 96.1557729,19.2510999 C96.5304144,19.2930849 96.9154644,19.3666392 97.3109429,19.4716823 C97.706381,19.5767455 98.0290008,19.6923251 98.2787618,19.8183808 C98.2787618,20.1755957 98.2631694,20.5643396 98.2319442,20.9845723 C98.2007392,21.404805 98.1538611,21.7199946 98.091431,21.930121 C97.8833035,21.930121 97.6075417,21.924883 97.2641253,21.9143666 C96.9206686,21.9038502 96.546027,21.8933741 96.1401805,21.8828375 C95.7343137,21.8723211 95.3180386,21.8670831 94.8913551,21.8670831 C94.4646716,21.8670831 94.0744175,21.8670831 93.7205927,21.8670831 C92.7631821,21.8670831 91.9150193,21.8775995 91.1761245,21.8986121 C90.4372296,21.9196046 89.7660094,21.930121 89.1624438,21.930121 C89.05838,21.5729061 88.9958893,21.2157315 88.9750927,20.8585166 C88.9542961,20.5013017 88.9438877,20.1546032 88.9438877,19.8183808 C89.7764178,19.7133176 90.5985596,19.5242441 91.4102931,19.2510999 C91.4727232,19.0199407 91.5143568,18.7467764 91.5351534,18.4316069 C91.5559904,18.1164173 91.5663786,17.8117642 91.5663786,17.5175671 L91.5663786,11.0248422 C91.5663786,10.7516577 91.5559904,10.4679971 91.5351534,10.1738403 C91.5143568,9.8796633 91.4831518,9.58552662 91.4415182,9.29132949 C91.0252431,9.144241 90.608968,9.02342335 90.1926929,8.92887654 C89.7764178,8.83432972 89.3601629,8.7660336 88.9438877,8.72398817 C88.9438877,8.36677327 88.9595003,8.01483671 88.9907053,7.66815835 C89.0219305,7.32145984 89.0791766,6.96948298 89.1624438,6.61230837 C89.7660094,6.61230837 90.4320455,6.62278447 91.160532,6.64381726 C91.8889984,6.66480976 92.731957,6.67532615 93.6893675,6.67532615 C94.5219178,6.67532615 95.3336512,6.67004781 96.1245679,6.65957171 C96.9154644,6.64905531 97.6023173,6.63330087 98.1850863,6.61230837 C98.2475568,6.94849049 98.28915,7.2899308 98.309987,7.63662931 C98.3307836,7.98332782 98.3412122,8.34578077 98.3412122,8.72398817 C97.7167894,9.0181853 96.9883231,9.20725878 96.1557729,9.29132949 C96.1141393,9.64854439 96.0881183,10.0319898 96.0777301,10.4417666 C96.0673217,10.8514829 96.0621377,11.2559611 96.0621377,11.6552214 L96.0621377,12.6952968 L102.056423,12.6952968 L102.056423,11.0248422 C102.056423,10.7516577 102.046014,10.4679971 102.025218,10.1738403 C102.004381,9.8796633 101.973156,9.58552662 101.931522,9.29132949 C101.55688,9.144241 101.166646,9.02342335 100.7608,8.92887654 C100.354893,8.83432972 99.9646589,8.7660336 99.5900173,8.72398817 C99.5900173,8.36677327 99.6056299,8.01483671 99.6368349,7.66815835 C99.6680601,7.32145984 99.7253062,6.96948298 99.8085734,6.61230837 C100.391342,6.61230837 101.031358,6.62278447 101.728619,6.64381726 C102.42588,6.66480976 103.242818,6.67532615 104.179412,6.67532615 C105.053555,6.67532615 105.896514,6.67004781 106.708267,6.65957171 C107.51996,6.64905531 108.22765,6.63330087 108.831256,6.61230837 C108.893686,6.94849049 108.93532,7.2899308 108.956117,7.63662931 C108.976913,7.98332782 108.987342,8.34578077 108.987342,8.72398817 C108.321306,9.0181853 107.540818,9.20725878 106.645837,9.29132949 C106.604204,9.64854439 106.578162,10.0319898 106.567754,10.4417666 C106.557366,10.8514829 106.552141,11.2559611 106.552141,11.6552214 L106.552141,16.887208 Z" id="path4" fill="#FFFFFF"></path>
                    <path d="M123.378966,7.07020832 C121.704826,7.38556204 119.891637,7.96444445 118.658547,9.14385522 C118.154695,9.62572228 117.782975,10.1668319 117.543471,10.7672037 C117.303945,11.3675951 117.167638,12.023256 117.134589,12.7342257 L117.233735,12.7342257 C117.877967,12.1654421 118.497459,11.7783593 119.092148,11.5729772 C119.686879,11.3675951 120.298063,11.264904 120.925821,11.264904 C121.520511,11.264904 122.061525,11.3715485 122.548843,11.5848374 C123.036181,11.7981264 123.457402,12.1022657 123.812567,12.4972358 C124.167731,12.8922255 124.444459,13.3582984 124.642689,13.8954742 C124.840899,14.4326305 124.940044,15.0172081 124.940044,15.6491877 C124.940044,16.5023631 124.774842,17.2764896 124.444459,17.9716848 C124.114076,18.6668212 123.672146,19.2553719 123.118793,19.7372389 C122.565378,20.2191256 121.929372,20.5943482 121.210776,20.8629263 C120.492179,21.1315239 119.736421,21.2658228 118.943501,21.2658228 C117.869741,21.2658228 116.977675,21.0485608 116.267346,20.6140957 C115.557017,20.1796109 114.991222,19.6305945 114.56996,18.9670267 C114.148719,18.3034589 113.851364,17.5727221 113.677915,16.7748946 C113.504466,15.9770084 113.417722,15.2147226 113.417722,14.4879392 C113.417722,13.3978131 113.591191,12.3313488 113.938088,11.288605 C114.285006,10.2458416 114.842534,9.30972271 115.610693,8.48028743 C116.378831,7.65081301 117.370001,6.95168401 118.584183,6.38292001 C119.798364,5.81417558 121.264451,5.45866138 122.982485,5.3164557 C123.164181,5.53767106 123.296375,5.80626874 123.378966,6.12224874 C123.461556,6.43822874 123.461556,6.75420874 123.378966,7.07020832 L123.378966,7.07020832 Z M119.488629,13.7295872 C119.108683,13.7295872 118.724603,13.8046434 118.33639,13.9547168 C117.948177,14.1048098 117.564118,14.3141649 117.184172,14.582743 C117.29136,15.5566738 117.502216,16.6930471 118.001873,17.5569476 C118.216638,17.9282167 118.46441,18.2165815 118.745251,18.4219636 C119.026092,18.6273457 119.348208,18.7300368 119.71164,18.7300368 C119.992481,18.7300368 120.252654,18.6944951 120.492179,18.6234119 C120.731705,18.5522895 120.892773,18.4772528 120.975384,18.3982627 C121.173614,18.1928414 121.338816,17.8966285 121.470969,17.5095457 C121.603102,17.1224824 121.669199,16.6761374 121.669199,16.1705498 C121.669199,15.4595801 121.450301,14.8750025 121.012546,14.4168559 C120.57477,13.9586507 120.066805,13.7295872 119.488629,13.7295872 L119.488629,13.7295872 Z M132.299456,18.9472596 C132.31595,18.7261029 132.324217,18.4812062 132.324217,18.2086747 C132.324217,17.9321701 132.324217,17.6793861 132.324217,17.4463301 L132.324217,16.9763233 L126.45156,16.9763233 C126.055121,16.2653732 125.881652,15.4832811 125.931194,14.6301449 L132.497686,5.64826895 C133.587961,5.64826895 134.645208,5.85365106 135.669427,6.26441528 L135.669427,14.7486105 L138.172113,14.938218 C138.221655,15.3213475 138.238169,15.6649623 138.221655,15.9691016 C138.205121,16.2732409 138.155579,16.608988 138.072968,16.9763233 L135.669427,16.9763233 C135.669427,17.2923229 135.669427,17.6320038 135.669427,17.9953661 C135.669427,18.358748 135.677653,18.6826545 135.694208,18.9670267 C136.057599,18.9986345 136.40865,19.0341761 136.747301,19.0736516 C137.085972,19.1131662 137.38742,19.1724088 137.651747,19.2513989 C137.668261,19.5516044 137.664148,19.8320427 137.639366,20.0927336 C137.614565,20.3534048 137.577403,20.6180295 137.52784,20.8866272 C137.048769,20.8550194 136.487128,20.8392449 135.842855,20.8392449 C135.198623,20.8392449 134.562617,20.8392449 133.934879,20.8392449 C133.092376,20.8392449 132.357266,20.8471517 131.729548,20.8629263 C131.101769,20.8787204 130.482318,20.8866272 129.871094,20.8866272 C129.788482,20.6140957 129.730673,20.3375912 129.697624,20.0571919 C129.664617,19.7767536 129.648082,19.500249 129.648082,19.2277175 C130.127153,19.2119234 130.569022,19.1803156 130.973769,19.1329333 C131.378496,19.0855314 131.820365,19.0262693 132.299456,18.9472596 L132.299456,18.9472596 Z M132.249894,8.77651991 L131.38261,10.6961204 L128.359557,14.8197329 L132.324217,14.8197329 L132.324217,8.77651991 L132.249894,8.77651991 Z" id="path6" fill="#FFFFFF"></path>
                    <path d="M24.8101266,24.8674442 L25.2299722,24.8674442 L25.2299722,27.5773398 L27.0908696,24.8674442 L27.5489845,24.8674442 L27.5489845,28.2894366 L27.1291389,28.2894366 L27.1291389,25.5867447 L25.2731074,28.2894366 L24.8101266,28.2894366 L24.8101266,24.8674442 Z M28.3292676,28.2894366 L28.3292676,24.8674442 L28.793086,24.8674442 L28.793086,26.2773669 L30.5994811,26.2773669 L30.5994811,24.8674442 L31.0632397,24.8674442 L31.0632397,28.2894366 L30.5994811,28.2894366 L30.5994811,26.6788047 L28.793086,26.6788047 L28.793086,28.2894366 L28.3292676,28.2894366 Z M33.0998888,25.273704 L33.0998888,24.8387854 L33.5344319,24.8387854 L33.5344319,25.273704 C33.9794846,25.2968185 34.3309879,25.4282624 34.5881441,25.6679771 C34.846078,25.90777 34.9746262,26.2048805 34.9746262,26.5601675 C34.9746262,26.9082312 34.8501462,27.2037409 34.6003488,27.4475163 C34.3505513,27.6904523 33.9957775,27.8250392 33.5344319,27.8497741 L33.5344319,28.2894366 L33.0998888,28.2894366 L33.0998888,27.8497741 C32.6865444,27.8338438 32.34234,27.7103846 32.0673155,27.4785568 C31.7923109,27.247588 31.6548286,26.9408921 31.6548286,26.5601675 C31.6548286,26.1786034 31.7923109,25.8727469 32.0665377,25.6433009 C32.3407645,25.413933 32.6849091,25.2912351 33.0998888,25.273704 L33.0998888,25.273704 Z M33.5344319,25.6608515 L33.5344319,27.4626266 C33.8330282,27.4482972 34.0673903,27.3630627 34.2390737,27.206962 C34.4107571,27.0508029 34.4961701,26.8357448 34.4961701,26.5617097 C34.4961701,26.2924772 34.4123924,26.0798204 34.2439397,25.9220994 C34.0755268,25.7651593 33.8395294,25.678324 33.5344319,25.6608515 L33.5344319,25.6608515 Z M33.0998888,25.6655954 C32.8118818,25.678324 32.579135,25.7611768 32.4009704,25.9157351 C32.2227858,26.0702349 32.1332448,26.2853515 32.1332448,26.5617097 C32.1332448,26.8349639 32.2211505,27.0492411 32.3968822,27.2053612 C32.5726338,27.3614618 32.8069561,27.445076 33.0998888,27.4578631 L33.0998888,25.6655954 Z M35.4058389,26.6238493 C35.4058389,26.056745 35.562087,25.6122604 35.8737256,25.2912351 C36.1853841,24.9702097 36.5873614,24.8101266 37.0804153,24.8101266 C37.4034808,24.8101266 37.6939207,24.8857756 37.9535099,25.0363514 C38.2122415,25.1868687 38.4099895,25.3971633 38.5458765,25.6672158 C38.6817634,25.9364288 38.7501257,26.2422853 38.7501257,26.5840043 C38.7501257,26.9305453 38.6784929,27.2411652 38.535307,27.5144193 C38.3920614,27.7883958 38.1894674,27.9955473 37.9274453,28.1357177 C37.6646454,28.276708 37.3814844,28.3467737 37.0779823,28.3467737 C36.7484754,28.3467737 36.4546852,28.2687429 36.1951558,28.1134037 C35.9363644,27.958084 35.7394739,27.7461885 35.6059999,27.476956 C35.4726058,27.2085043 35.4058389,26.924181 35.4058389,26.6238493 L35.4058389,26.6238493 Z M35.884295,26.6318145 C35.884295,27.0436577 35.9974278,27.3678261 36.2235936,27.6043978 C36.4498192,27.8409695 36.7337779,27.9596848 37.0755493,27.9596848 C37.423822,27.9596848 37.7094159,27.8402081 37.934784,27.6012547 C38.1593944,27.3622427 38.2716497,27.022964 38.2716497,26.5832429 C38.2716497,26.3052643 38.2236684,26.0622698 38.1276063,25.8551964 C38.0316239,25.6480644 37.890871,25.4872003 37.7061254,25.373307 C37.520602,25.2593551 37.3131421,25.2020375 37.0828881,25.2020375 C36.7557543,25.2020375 36.4742486,25.3119287 36.2382911,25.5317893 C36.0022737,25.7516499 35.884295,26.1180646 35.884295,26.6318145 L35.884295,26.6318145 Z M39.3449253,28.2894366 L39.3449253,24.8674442 L40.6647078,24.8674442 C40.8965971,24.8674442 41.073984,24.8786305 41.1968885,24.9001636 C41.368552,24.9279829 41.5125954,24.981396 41.6289388,25.0594268 C41.7452624,25.1382776 41.8388916,25.2482469 41.9096668,25.3891786 C41.9804421,25.5301885 42.015421,25.6855277 42.015421,25.8551964 C42.015421,26.1451226 41.921014,26.3912602 41.7314822,26.5919694 C41.5426684,26.793518 41.2000992,26.8939018 40.7054101,26.8939018 L39.8087437,26.8939018 L39.8087437,28.2894366 L39.3449253,28.2894366 Z M39.8087437,26.492425 L40.7119113,26.492425 C41.0113452,26.492425 41.2228734,26.4382505 41.3490085,26.3291206 C41.474326,26.2199908 41.5369649,26.0670918 41.5369649,25.8687449 C41.5369649,25.7261537 41.5003907,25.6034558 41.4263249,25.5015297 C41.3522791,25.399584 41.2546614,25.3318611 41.1341899,25.2992002 C41.0561157,25.2792874 40.9120923,25.2689406 40.7029771,25.2689406 L39.8087437,25.2689406 L39.8087437,26.492425 Z M42.5370123,28.2894366 L42.5370123,24.8674442 L43.2303069,24.8674442 L44.0569758,27.2897953 C44.1334746,27.5152002 44.1888145,27.684088 44.2237933,27.7963805 C44.263658,27.6721403 44.3263567,27.4889036 44.4109719,27.247588 L45.2522984,24.8674442 L45.8715273,24.8674442 L45.8715273,28.2894366 L45.4272524,28.2894366 L45.4272524,25.426642 L44.4069037,28.2894366 L43.9902887,28.2894366 L42.9812872,25.3740879 L42.9812872,28.2894366 L42.5370123,28.2894366 Z M46.2303096,28.2894366 L47.5713108,24.8674442 L48.0798399,24.8674442 L49.5029635,28.2894366 L48.9765063,28.2894366 L48.572096,27.252332 L47.1001934,27.252332 L46.7209903,28.2894366 L46.2303096,28.2894366 Z M47.2360206,26.8843359 L48.4272749,26.8843359 L48.0627692,25.9356674 C47.952927,25.6472835 47.8698871,25.4091109 47.8121142,25.2211304 C47.764133,25.4441926 47.6998589,25.6632332 47.619292,25.8798726 L47.2360206,26.8843359 Z M49.8797337,24.8674442 L50.3435123,24.8674442 L50.3435123,27.8879597 L52.1596791,27.8879597 L52.1596791,24.8674442 L52.6234576,24.8674442 L52.6234576,27.8879597 L52.9407997,27.8879597 L52.9407997,29.2405063 L52.530686,29.2405063 L52.530686,28.2894366 L49.8797337,28.2894366 L49.8797337,24.8674442 Z M53.4908886,24.8674442 L53.9107342,24.8674442 L53.9107342,27.5773398 L55.7716317,24.8674442 L56.2297466,24.8674442 L56.2297466,28.2894366 L55.809901,28.2894366 L55.809901,25.5867447 L53.9538695,28.2894366 L53.4908886,28.2894366 L53.4908886,24.8674442 Z M56.8489157,26.6238493 C56.8489157,26.056745 57.0051637,25.6122604 57.3168023,25.2912351 C57.6284609,24.9702097 58.0304381,24.8101266 58.5234721,24.8101266 C58.8465376,24.8101266 59.1369975,24.8857756 59.3965866,25.0363514 C59.6553182,25.1868687 59.8530463,25.3971633 59.9889532,25.6672158 C60.1248402,25.9364288 60.1931825,26.2422853 60.1931825,26.5840043 C60.1931825,26.9305453 60.1215696,27.2411652 59.9783838,27.5144193 C59.8351381,27.7883958 59.6325242,27.9955473 59.370522,28.1357177 C59.1077221,28.276708 58.8245612,28.3467737 58.521059,28.3467737 C58.1915322,28.3467737 57.8977619,28.2687429 57.6382326,28.1134037 C57.3794411,27.958084 57.1825506,27.7461885 57.0490767,27.476956 C56.9156626,27.2085043 56.8489157,26.924181 56.8489157,26.6238493 L56.8489157,26.6238493 Z M57.3273717,26.6318145 C57.3273717,27.0436577 57.4404846,27.3678261 57.6666703,27.6043978 C57.892896,27.8409695 58.1768347,27.9596848 58.5186261,27.9596848 C58.8668987,27.9596848 59.1524927,27.8402081 59.3778608,27.6012547 C59.6024512,27.3622427 59.7147264,27.022964 59.7147264,26.5832429 C59.7147264,26.3052643 59.6667253,26.0622698 59.5706831,25.8551964 C59.4747007,25.6480644 59.3339478,25.4872003 59.1492022,25.373307 C58.9636788,25.2593551 58.7562189,25.2020375 58.5259649,25.2020375 C58.1988311,25.2020375 57.9173253,25.3119287 57.6813678,25.5317893 C57.4453505,25.7516499 57.3273717,26.1180646 57.3273717,26.6318145 Z M60.8074856,28.2894366 L60.8074856,24.8674442 L61.271324,24.8674442 L61.271324,26.2773669 L63.0777191,26.2773669 L63.0777191,24.8674442 L63.5414777,24.8674442 L63.5414777,28.2894366 L63.0777191,28.2894366 L63.0777191,26.6788047 L61.271324,26.6788047 L61.271324,28.2894366 L60.8074856,28.2894366 Z M64.3331678,28.2894366 L64.3331678,24.8674442 L64.7970061,24.8674442 L64.7970061,26.2773669 L66.6034012,26.2773669 L66.6034012,24.8674442 L67.0671598,24.8674442 L67.0671598,28.2894366 L66.6034012,28.2894366 L66.6034012,26.6788047 L64.7970061,26.6788047 L64.7970061,28.2894366 L64.3331678,28.2894366 Z M67.6977558,26.6238493 C67.6977558,26.056745 67.8540039,25.6122604 68.1656425,25.2912351 C68.477301,24.9702097 68.8792783,24.8101266 69.3723122,24.8101266 C69.6953778,24.8101266 69.9858376,24.8857756 70.2454268,25.0363514 C70.5041584,25.1868687 70.7018865,25.3971633 70.8377934,25.6672158 C70.9736803,25.9364288 71.0420227,26.2422853 71.0420227,26.5840043 C71.0420227,26.9305453 70.9704098,27.2411652 70.827224,27.5144193 C70.6839783,27.7883958 70.4813643,27.9955473 70.2193622,28.1357177 C69.9565623,28.276708 69.6734013,28.3467737 69.3698992,28.3467737 C69.0403724,28.3467737 68.7466021,28.2687429 68.4870727,28.1134037 C68.2282813,27.958084 68.0313908,27.7461885 67.8979169,27.476956 C67.7645028,27.2085043 67.6977558,26.924181 67.6977558,26.6238493 L67.6977558,26.6238493 Z M68.1762119,26.6318145 C68.1762119,27.0436577 68.2893247,27.3678261 68.5155105,27.6043978 C68.7417361,27.8409695 69.0256749,27.9596848 69.3674662,27.9596848 C69.7157389,27.9596848 70.0013328,27.8402081 70.2267009,27.6012547 C70.4512913,27.3622427 70.5635666,27.022964 70.5635666,26.5832429 C70.5635666,26.3052643 70.5155654,26.0622698 70.4195232,25.8551964 C70.3235408,25.6480644 70.182788,25.4872003 69.9980423,25.373307 C69.8125189,25.2593551 69.605059,25.2020375 69.374805,25.2020375 C69.0476712,25.2020375 68.7661655,25.3119287 68.530208,25.5317893 C68.2941907,25.7516499 68.1762119,26.1180646 68.1762119,26.6318145 Z M71.6466139,28.2894366 L71.6466139,24.8674442 L74.1706532,24.8674442 L74.1706532,25.2689406 L72.1103725,25.2689406 L72.1103725,26.3203746 L74.0388146,26.3203746 L74.0388146,26.7218515 L72.1103725,26.7218515 L72.1103725,27.8879597 L74.2536332,27.8879597 L74.2536332,28.2894366 L71.6466139,28.2894366 Z M75.8663684,28.2894366 L77.2073497,24.8674442 L77.7158987,24.8674442 L79.1390224,28.2894366 L78.6125652,28.2894366 L78.2081549,27.252332 L76.7362324,27.252332 L76.3570292,28.2894366 L75.8663684,28.2894366 Z M76.8720794,26.8843359 L78.0633139,26.8843359 L77.6988281,25.9356674 C77.5889858,25.6472835 77.505946,25.4091109 77.4481731,25.2211304 C77.400172,25.4441926 77.3358979,25.6632332 77.2553509,25.8798726 L76.8720794,26.8843359 Z M79.5157926,24.8674442 L81.7761745,24.8674442 L81.7761745,25.2689406 L79.9795512,25.2689406 L79.9795512,28.2894366 L79.5157926,28.2894366 L79.5157926,24.8674442 Z M82.159446,28.2894366 L82.159446,24.8674442 L84.6834853,24.8674442 L84.6834853,25.2689406 L82.6232045,25.2689406 L82.6232045,26.3203746 L84.5516466,26.3203746 L84.5516466,26.7218515 L82.6232045,26.7218515 L82.6232045,27.8879597 L84.7664653,27.8879597 L84.7664653,28.2894366 L82.159446,28.2894366 Z M85.4255389,28.2894366 L85.4255389,24.8674442 L85.8893573,24.8674442 L85.8893573,26.2773669 L87.6957723,26.2773669 L87.6957723,24.8674442 L88.1595309,24.8674442 L88.1595309,28.2894366 L87.6957723,28.2894366 L87.6957723,26.6788047 L85.8893573,26.6788047 L85.8893573,28.2894366 L85.4255389,28.2894366 Z M89.8202474,28.2894366 L89.8202474,25.2689406 L88.66806,25.2689406 L88.66806,24.8674442 L91.4362532,24.8674442 L91.4362532,25.2689406 L90.2840658,25.2689406 L90.2840658,28.2894366 L89.8202474,28.2894366 Z M94.4037697,27.0890276 L94.8675283,27.2037409 C94.7707084,27.575739 94.596592,27.8585201 94.3451393,28.0536458 C94.0937664,28.2488302 93.7861761,28.3467737 93.4224681,28.3467737 C93.0464956,28.3467737 92.7405605,28.2719056 92.504603,28.1213883 C92.2686455,27.9716325 92.0896233,27.7541536 91.9667786,27.4698108 C91.8438941,27.1846675 91.7820529,26.8795724 91.7820529,26.5529637 C91.7820529,26.1969153 91.8512328,25.8862369 91.9903505,25.6210064 C92.1294681,25.3557564 92.3272161,25.1542273 92.5835147,25.0164191 C92.8398334,24.8786305 93.1221966,24.8101266 93.429767,24.8101266 C93.779635,24.8101266 94.0734053,24.8969424 94.3109981,25.0713745 C94.5493885,25.2458652 94.7154083,25.4903434 94.8089777,25.8058244 L94.354931,25.9109717 C94.274364,25.6624523 94.1564052,25.480836 94.0025702,25.3677236 C93.8488149,25.2537717 93.6551551,25.1972155 93.4216305,25.1972155 C93.1539049,25.1972155 92.9293744,25.2601946 92.7495545,25.3860355 C92.5697346,25.5118765 92.4427619,25.6815452 92.3703513,25.8934406 C92.2971431,26.1060974 92.260509,26.3251381 92.260509,26.550582 C92.260509,26.8413282 92.3036443,27.0953919 92.3899147,27.3121094 C92.4761054,27.5295296 92.610377,27.6912331 92.7926897,27.7987622 C92.9749226,27.9062717 93.1718131,27.9596848 93.3841988,27.9596848 C93.6429304,27.9596848 93.8610196,27.8864175 94.0400617,27.7406442 C94.2190241,27.594051 94.3402933,27.3774116 94.4037697,27.0890276 Z M96.166192,28.2894366 L96.166192,25.2689406 L95.0140047,25.2689406 L95.0140047,24.8674442 L97.7821978,24.8674442 L97.7821978,25.2689406 L96.6300104,25.2689406 L96.6300104,28.2894366 L96.166192,28.2894366 Z M98.2403127,28.2894366 L98.2403127,24.8674442 L99.5519588,24.8674442 C99.8188269,24.8674442 100.032848,24.9017059 100.19476,24.9710492 C100.355854,25.040334 100.481989,25.1470821 100.573105,25.2912351 C100.665079,25.4346266 100.710647,25.5851439 100.710647,25.7428648 C100.710647,25.8886186 100.669945,26.0264658 100.589378,26.1554694 C100.508831,26.2845121 100.386784,26.3888785 100.223237,26.4685101 C100.434785,26.5290489 100.597535,26.6325954 100.710647,26.7791886 C100.824538,26.9249619 100.881473,27.0978322 100.881473,27.2969405 C100.881473,27.4578631 100.846534,27.6067795 100.777354,27.7446267 C100.708214,27.8824349 100.622742,27.9883436 100.521036,28.0632118 C100.41935,28.1373186 100.291579,28.1938748 100.138622,28.232119 C99.9848068,28.2703438 99.7968505,28.2894366 99.5738953,28.2894366 L98.2403127,28.2894366 Z M98.7040713,26.3060452 L99.4599848,26.3060452 C99.6650118,26.3060452 99.8123257,26.2924772 99.9010291,26.2662001 C100.019008,26.2319384 100.107691,26.1746208 100.167119,26.0949892 C100.226468,26.015299 100.256601,25.9157351 100.256601,25.7954385 C100.256601,25.6815452 100.228961,25.5811613 100.172763,25.4951654 C100.117483,25.40833 100.037714,25.3485722 99.9343727,25.3167508 C99.8310515,25.2848708 99.6536447,25.2689406 99.4030495,25.2689406 L98.7040713,25.2689406 L98.7040713,26.3060452 Z M98.7040713,27.8879597 L99.5747329,27.8879597 C99.72442,27.8879597 99.8293963,27.8824349 99.8904597,27.8712486 C99.9962138,27.8529367 100.085715,27.8218766 100.157328,27.778049 C100.228961,27.7342213 100.287511,27.6705395 100.333877,27.5868667 C100.380283,27.5032526 100.403057,27.4068513 100.403057,27.2977214 C100.403057,27.1694987 100.369713,27.058768 100.302169,26.9639675 C100.235462,26.869167 100.14269,26.8031034 100.023874,26.7648592 C99.9058951,26.7266149 99.7350093,26.7075221 99.5128918,26.7075221 L98.7040713,26.7075221 L98.7040713,27.8879597 Z M101.212675,26.6238493 C101.212675,26.056745 101.368923,25.6122604 101.680582,25.2912351 C101.99222,24.9702097 102.394198,24.8101266 102.887252,24.8101266 C103.210317,24.8101266 103.500757,24.8857756 103.760346,25.0363514 C104.019078,25.1868687 104.216826,25.3971633 104.352713,25.6672158 C104.48862,25.9364288 104.556962,26.2422853 104.556962,26.5840043 C104.556962,26.9305453 104.485329,27.2411652 104.342143,27.5144193 C104.198898,27.7883958 103.996304,27.9955473 103.734282,28.1357177 C103.471482,28.276708 103.188321,28.3467737 102.884819,28.3467737 C102.555312,28.3467737 102.261521,28.2687429 102.001992,28.1134037 C101.743201,27.958084 101.54631,27.7461885 101.412856,27.476956 C101.279442,27.2085043 101.212675,26.924181 101.212675,26.6238493 L101.212675,26.6238493 Z M101.691151,26.6318145 C101.691151,27.0436577 101.804264,27.3678261 102.03043,27.6043978 C102.256656,27.8409695 102.540614,27.9596848 102.882386,27.9596848 C103.230658,27.9596848 103.516252,27.8402081 103.74164,27.6012547 C103.966231,27.3622427 104.078486,27.022964 104.078486,26.5832429 C104.078486,26.3052643 104.030505,26.0622698 103.934463,25.8551964 C103.83846,25.6480644 103.697707,25.4872003 103.512982,25.373307 C103.327438,25.2593551 103.119978,25.2020375 102.889744,25.2020375 C102.562591,25.2020375 102.281085,25.3119287 102.045127,25.5317893 C101.80911,25.7516499 101.691151,26.1180646 101.691151,26.6318145 Z" id="path8" fill="#FFFFFF"></path>
                </g>
            </g>
        </g>
    </g>
</svg>